<?xml version="1.0" encoding="utf-8"?>
<!-- Generator: Adobe Illustrator 24.0.0, SVG Export Plug-In . SVG Version: 6.00 Build 0)  -->
<svg version="1.1" id="Layer_1" xmlns="http://www.w3.org/2000/svg" xmlns:xlink="http://www.w3.org/1999/xlink" x="0px" y="0px"
	 viewBox="0 0 342 40" style="enable-background:new 0 0 342 40;" xml:space="preserve">
<style type="text/css">
	.st0{fill:#E95DED;stroke:#000000;stroke-width:0.5;stroke-miterlimit:10;}
	.st1{font-family:'Roboto-Medium';}
	.st2{font-size:35.1066px;}
	.st3{fill:#B38A82;}
	.st4{opacity:0.1;}
	.st5{fill:#F27281;}
	.st6{fill:#464D59;}
	.st7{opacity:0.1;enable-background:new    ;}
	.st8{fill:#F5D7B7;}
	.st9{fill:#F2CAA7;}
	.st10{fill:#8ADBA1;}
</style>
<g>
	<text transform="matrix(1 0 0 1 85.3959 33.6219)"><tspan x="0" y="0" class="st0 st1 st2">P </tspan><tspan x="31.2" y="0" class="st1 st2">i n k  </tspan><tspan x="113" y="0" class="st0 st1 st2">S </tspan><tspan x="142.9" y="0" class="st1 st2">o f t</tspan></text>
	<g>
		<g>
			<path class="st3" d="M52.2,28.5c-0.4,0-0.9-0.2-1.2-0.5l-6.5-6.5c-0.6-0.6-0.6-1.7,0-2.3c0.6-0.6,1.7-0.6,2.3,0l6.5,6.5
				c0.6,0.6,0.6,1.7,0,2.3C53,28.3,52.6,28.5,52.2,28.5z"/>
			<path class="st3" d="M69.4,22.9c-0.4,0-0.9-0.2-1.2-0.5c-0.6-0.6-0.6-1.7,0-2.3l6.5-6.5c0.6-0.6,1.7-0.6,2.3,0
				c0.6,0.6,0.6,1.7,0,2.3l-6.5,6.5C70.3,22.7,69.8,22.9,69.4,22.9z"/>
			<path class="st3" d="M71.2,31.7c0,2.3-4.6,4.1-10.4,4.1c-5.7,0-10.4-1.9-10.4-4.1V10.6h20.8L71.2,31.7L71.2,31.7z"/>
		</g>
		<g class="st4">
			<path d="M66.7,32.7c-0.3,0-0.5-0.2-0.5-0.5c0-0.5,0.1-1,0.1-1.5c0.1-0.6,0.1-1.2,0.1-2c0-0.3,0.2-0.5,0.5-0.5s0.5,0.2,0.5,0.5
				c0,0.8-0.1,1.5-0.1,2.1c-0.1,0.5-0.1,0.9-0.1,1.4C67.2,32.4,67,32.7,66.7,32.7z"/>
			<path d="M54.4,31.2C54.4,31.2,54.4,31.2,54.4,31.2c-0.3,0-0.5-0.2-0.5-0.5c0-0.6-0.1-1.2-0.2-1.8c-0.1-0.5-0.2-1.1-0.2-1.5
				c0-0.3,0.2-0.5,0.5-0.5c0.3,0,0.5,0.2,0.5,0.5c0,0.4,0.1,0.9,0.1,1.4c0.1,0.6,0.2,1.3,0.2,2C54.9,31,54.7,31.2,54.4,31.2z"/>
			<path d="M63,33.9c-0.2,0-0.5-0.2-0.5-0.4c-0.1-0.4,0-1.1,0-1.8c0-0.3,0-0.6,0-0.8c0-0.3,0.2-0.5,0.5-0.5s0.5,0.2,0.5,0.5
				c0,0.2,0,0.5-0.1,0.9c0,0.5-0.1,1.2-0.1,1.6C63.6,33.6,63.4,33.8,63,33.9C63.1,33.9,63.1,33.9,63,33.9z"/>
			<path d="M64.1,18.5C64.1,18.5,64.1,18.5,64.1,18.5c-0.3,0-0.5-0.3-0.5-0.5c0-0.3,0.1-0.5,0.1-0.7c0.1-0.3,0.1-0.5,0.1-0.8
				c0-0.3,0.2-0.5,0.5-0.5c0.3,0,0.5,0.2,0.5,0.5c0,0.4,0,0.7-0.1,1c0,0.2-0.1,0.4-0.1,0.6C64.6,18.3,64.3,18.5,64.1,18.5z"/>
			<path d="M53.9,18.8c-0.3,0-0.5-0.2-0.5-0.5c0-0.3,0-0.8-0.2-1.5c0-0.3,0.1-0.5,0.4-0.6c0.3,0,0.5,0.1,0.6,0.4
				c0.1,0.7,0.2,1.2,0.2,1.6C54.4,18.5,54.2,18.8,53.9,18.8z"/>
		</g>
		<g>
			<ellipse class="st5" cx="55.8" cy="23.7" rx="1.8" ry="1.5"/>
			<ellipse class="st5" cx="65.7" cy="23.7" rx="1.8" ry="1.5"/>
		</g>
		<g>
			<path class="st6" d="M56.1,22.5c-0.3,0-0.5-0.2-0.5-0.5v-0.8c0-0.3,0.2-0.5,0.5-0.5c0.3,0,0.5,0.2,0.5,0.5V22
				C56.6,22.2,56.4,22.5,56.1,22.5z"/>
			<path class="st6" d="M60.7,23.9L60.7,23.9c-0.7,0-1.3-0.6-1.3-1.3v-1c0-0.2,0.2-0.4,0.4-0.4h1.9c0.2,0,0.4,0.2,0.4,0.4v1
				C62.1,23.3,61.5,23.9,60.7,23.9z"/>
			<path class="st6" d="M65.4,22.5c-0.3,0-0.5-0.2-0.5-0.5v-0.8c0-0.3,0.2-0.5,0.5-0.5c0.3,0,0.5,0.2,0.5,0.5V22
				C65.9,22.2,65.7,22.5,65.4,22.5z"/>
		</g>
		<path class="st7" d="M50.4,31.7c0,2.3,4.6,4.1,10.4,4.1c0.7,0,1.5,0,2.2-0.1c-7.7-3.4-8.7-14.3-8.4-25.1h-4.2V31.7z"/>
		<ellipse class="st8" cx="60.8" cy="10.6" rx="10.4" ry="4.1"/>
		<g>
			<path class="st9" d="M60.8,12.7c-1.1,0-2.2-0.1-3.2-0.2c-1-0.1-1.9-0.3-2.7-0.6c-0.3-0.1-0.4-0.4-0.3-0.6
				c0.1-0.3,0.4-0.4,0.6-0.3c0.8,0.2,1.6,0.4,2.5,0.6c1,0.1,2,0.2,3.1,0.2c0.3,0,0.5,0.2,0.5,0.5C61.3,12.5,61.1,12.7,60.8,12.7z"/>
			<path class="st9" d="M66.5,10.2c0,0-0.1,0-0.1,0c-0.9-0.3-2-0.5-3.1-0.6c-0.3,0-0.5-0.3-0.4-0.5c0-0.3,0.3-0.5,0.5-0.4
				c1.2,0.1,2.3,0.4,3.3,0.7c0.3,0.1,0.4,0.4,0.3,0.6C66.9,10.1,66.7,10.2,66.5,10.2z"/>
			<path class="st9" d="M59.3,9.5c-0.3,0-0.5-0.2-0.5-0.5c0-0.3,0.2-0.5,0.5-0.5c0.5,0,1,0,1.5,0c0.3,0,0.5,0.2,0.5,0.5
				c0,0.3-0.2,0.5-0.5,0.5C60.3,9.4,59.8,9.4,59.3,9.5C59.4,9.5,59.3,9.5,59.3,9.5z"/>
		</g>
		<path class="st10" d="M45.5,12.4c0.3-0.3,0.8-0.3,1.1,0c0.6,0.7,1.6,2.2,1.6,4c0,1.4-0.9,2.8-2.1,2.8c-1.2,0-2.1-1.4-2.1-2.8
			C44,14.6,44.9,13.1,45.5,12.4z"/>
		<path class="st7" d="M46.1,17.9c-0.3,0-0.5-0.2-0.5-0.5v-2.7c0-0.3,0.2-0.5,0.5-0.5s0.5,0.2,0.5,0.5v2.7
			C46.6,17.7,46.3,17.9,46.1,17.9z"/>
		<g>
		</g>
		<g>
		</g>
		<g>
		</g>
		<g>
		</g>
		<g>
		</g>
		<g>
		</g>
		<g>
		</g>
		<g>
		</g>
		<g>
		</g>
		<g>
		</g>
		<g>
		</g>
		<g>
		</g>
		<g>
		</g>
		<g>
		</g>
		<g>
		</g>
	</g>
</g>
</svg>
