<?xml version="1.0" encoding="utf-8"?>
<!-- Generator: Adobe Illustrator 24.0.0, SVG Export Plug-In . SVG Version: 6.00 Build 0)  -->
<svg version="1.1" id="Layer_1" xmlns="http://www.w3.org/2000/svg" xmlns:xlink="http://www.w3.org/1999/xlink" x="0px" y="0px"
	 viewBox="0 0 342 40" style="enable-background:new 0 0 342 40;" xml:space="preserve">
<style type="text/css">
	.st0{fill:#39B54A;stroke:#000000;stroke-width:0.5;stroke-miterlimit:10;}
	.st1{font-family:'Roboto-Regular';}
	.st2{font-size:35.6465px;}
	.st3{fill:#BDED7E;}
	.st4{fill:#C8D0FF;}
	.st5{fill:#FFFFFF;}
	.st6{fill:#FE7A77;}
</style>
<g>
	<text transform="matrix(1 0 0 1 105.5741 32.7974)"><tspan x="0" y="0" class="st0 st1 st2">A</tspan><tspan x="23.25" y="0" class="st1 st2">lien’s </tspan><tspan x="113.43" y="0" class="st0 st1 st2">S</tspan><tspan x="134.58" y="0" class="st1 st2">oft</tspan></text>
	<g>
		<path class="st3" d="M75.15,19.78v9.19c0,0.81-0.3,1.59-0.85,2.19l-1.52,1.66c-0.87,0.95-0.94,2.39-0.16,3.42l0,0
			c0.73,0.96,2.01,1.33,3.13,0.88l0.94-0.37c1.01-0.4,2.12-0.47,3.17-0.21c1.36,0.34,3.53,0.76,6.04,0.76s4.68-0.42,6.04-0.76
			c1.05-0.27,2.16-0.19,3.17,0.21l0.94,0.37c1.12,0.44,2.4,0.08,3.13-0.88l0.01-0.01c0.77-1.03,0.71-2.45-0.15-3.41l-1.5-1.67
			c-0.54-0.6-0.83-1.37-0.83-2.17v-9.2c0-5.95-4.82-10.77-10.77-10.77l0,0C79.98,9.01,75.15,13.83,75.15,19.78z"/>
		<g>
			<circle class="st4" cx="92.87" cy="6.01" r="1.33"/>
			<circle class="st4" cx="78.94" cy="6.01" r="1.33"/>
		</g>
		<circle class="st5" cx="85.9" cy="21" r="4.51"/>
		<circle class="st6" cx="85.9" cy="21" r="1.59"/>
		<path d="M96.7,23.79c-0.17,0-0.34,0.07-0.47,0.19c-0.12,0.12-0.19,0.29-0.19,0.47c0,0.17,0.07,0.35,0.19,0.47
			c0.12,0.12,0.29,0.19,0.47,0.19c0.17,0,0.35-0.07,0.47-0.19c0.12-0.12,0.19-0.29,0.19-0.47c0-0.18-0.07-0.35-0.19-0.47
			C97.04,23.86,96.87,23.79,96.7,23.79z"/>
		<path d="M99.53,32.38l-1.5-1.67c-0.43-0.48-0.66-1.09-0.66-1.73v-1.8c0-0.37-0.3-0.66-0.66-0.66c-0.37,0-0.66,0.3-0.66,0.66v1.8
			c0,0.97,0.36,1.9,1,2.62l1.5,1.67c0.64,0.72,0.69,1.8,0.11,2.57l-0.01,0.01c-0.54,0.72-1.51,1-2.36,0.66l-0.94-0.37
			c-1.15-0.45-2.39-0.53-3.58-0.23c-1.34,0.34-3.44,0.74-5.87,0.74s-4.54-0.4-5.87-0.74c-1.19-0.3-2.43-0.22-3.58,0.23l-0.94,0.37
			c-0.84,0.33-1.81,0.06-2.36-0.66c-0.58-0.78-0.53-1.86,0.12-2.58l1.52-1.66c0.66-0.72,1.02-1.66,1.02-2.64v-9.19
			c0-5.57,4.54-10.11,10.11-10.11c5.57,0,10.11,4.54,10.11,10.11v2.05c0,0.37,0.3,0.66,0.66,0.66c0.37,0,0.66-0.3,0.66-0.66v-2.05
			c0-3.39-1.48-6.44-3.83-8.53V7.89c0.77-0.27,1.33-1.01,1.33-1.88c0-1.1-0.89-1.99-1.99-1.99s-1.99,0.89-1.99,1.99
			c0,0.86,0.55,1.6,1.33,1.88v2.34c-1.8-1.19-3.96-1.88-6.28-1.88c-2.34,0-4.51,0.71-6.33,1.91V7.89c0.77-0.27,1.33-1.01,1.33-1.88
			c0-1.1-0.89-1.99-1.99-1.99c-1.1,0-1.99,0.89-1.99,1.99c0,0.86,0.55,1.6,1.33,1.88v3.4c-2.32,2.09-3.78,5.13-3.78,8.49v9.19
			c0,0.65-0.24,1.27-0.68,1.75l-1.52,1.66c-1.08,1.19-1.17,2.98-0.2,4.27c0.9,1.2,2.51,1.65,3.9,1.1l0.94-0.37
			c0.89-0.35,1.85-0.41,2.76-0.18c1.41,0.36,3.63,0.78,6.2,0.78c2.57,0,4.79-0.43,6.2-0.78c0.92-0.23,1.88-0.17,2.76,0.18l0.94,0.37
			c1.4,0.55,3,0.1,3.9-1.1l0.01-0.01C100.67,35.36,100.6,33.57,99.53,32.38z M92.87,5.35c0.37,0,0.66,0.3,0.66,0.66
			c0,0.37-0.3,0.66-0.66,0.66s-0.66-0.3-0.66-0.66C92.2,5.64,92.5,5.35,92.87,5.35z M78.94,5.35c0.37,0,0.66,0.3,0.66,0.66
			c0,0.37-0.3,0.66-0.66,0.66s-0.66-0.3-0.66-0.66C78.27,5.64,78.57,5.35,78.94,5.35z"/>
		<path d="M89.56,17.34c-2.02-2.02-5.3-2.02-7.32,0c-2.02,2.02-2.02,5.3,0,7.32c1.01,1.01,2.33,1.51,3.66,1.51s2.65-0.5,3.66-1.51
			C91.58,22.64,91.58,19.36,89.56,17.34z M88.62,23.72c-1.5,1.5-3.94,1.5-5.44,0c-1.5-1.5-1.5-3.94,0-5.44
			c0.75-0.75,1.74-1.13,2.72-1.13c0.99,0,1.97,0.37,2.72,1.13C90.12,19.78,90.12,22.22,88.62,23.72z"/>
		<path d="M84.31,19.41c-0.88,0.88-0.88,2.31,0,3.19c0.44,0.44,1.02,0.66,1.59,0.66s1.16-0.22,1.59-0.66c0,0,0,0,0,0
			c0.88-0.88,0.88-2.31,0-3.19C86.62,18.53,85.19,18.53,84.31,19.41z M86.56,21.66c-0.36,0.36-0.95,0.36-1.31,0
			c-0.36-0.36-0.36-0.95,0-1.31c0.18-0.18,0.42-0.27,0.66-0.27c0.24,0,0.48,0.09,0.66,0.27C86.92,20.71,86.92,21.29,86.56,21.66z"/>
		<path d="M85.96,12.8c0.37,0,0.66-0.3,0.66-0.66c0-0.37-0.3-0.66-0.66-0.66l-0.03,0c-0.37,0-0.66,0.3-0.66,0.66s0.3,0.66,0.66,0.66
			L85.96,12.8z"/>
		<path d="M91.74,15.43c0.13,0.15,0.31,0.23,0.5,0.23c0.16,0,0.31-0.05,0.44-0.17c0.28-0.24,0.3-0.66,0.06-0.94
			c-1.01-1.15-2.3-2.03-3.73-2.54c-0.34-0.12-0.72,0.05-0.85,0.4c-0.12,0.34,0.05,0.72,0.4,0.85
			C89.78,13.69,90.88,14.44,91.74,15.43z"/>
		<path d="M89.08,29.17c-0.85,0.85-1.97,1.31-3.17,1.31s-2.33-0.47-3.17-1.31c-0.26-0.26-0.68-0.26-0.94,0
			c-0.26,0.26-0.26,0.68,0,0.94c1.1,1.1,2.56,1.7,4.11,1.7c1.55,0,3.01-0.6,4.11-1.7c0.26-0.26,0.26-0.68,0-0.94
			C89.75,28.91,89.33,28.91,89.08,29.17z"/>
		<g>
		</g>
		<g>
		</g>
		<g>
		</g>
		<g>
		</g>
		<g>
		</g>
		<g>
		</g>
		<g>
		</g>
		<g>
		</g>
		<g>
		</g>
		<g>
		</g>
		<g>
		</g>
		<g>
		</g>
		<g>
		</g>
		<g>
		</g>
		<g>
		</g>
	</g>
</g>
</svg>
